STARTFONT 2.1
FONT -FontForge-Pockedev-Regular-R-Normal--8-60-96-96-C-0-ISO10646-1
SIZE 8 75 75
FONTBOUNDINGBOX 7 8 0 -1
COMMENT "Generated by fontforge, http://fontforge.sourceforge.net"
COMMENT "Copyright (c) StarBrilliant. Licensed under LGPL version 3."
STARTPROPERTIES 26
FOUNDRY "FontForge"
FAMILY_NAME "Pockedev"
WEIGHT_NAME "Regular"
SLANT "R"
SETWIDTH_NAME "Normal"
ADD_STYLE_NAME ""
PIXEL_SIZE 8
POINT_SIZE 60
RESOLUTION_X 96
RESOLUTION_Y 96
SPACING "C"
AVERAGE_WIDTH 0
CHARSET_REGISTRY "ISO10646"
CHARSET_ENCODING "1"
FONTNAME_REGISTRY ""
CHARSET_COLLECTIONS "ISO10646-1"
FONT_NAME "Pockedev"
FACE_NAME "Pockedev"
FONT_VERSION "001.000"
FONT_ASCENT 7
FONT_DESCENT 1
UNDERLINE_POSITION 63
UNDERLINE_THICKNESS 125
RAW_ASCENT 875
RAW_DESCENT 125
FIGURE_WIDTH -1
ENDPROPERTIES
CHARS 241
STARTCHAR hyphen
ENCODING 45
SWIDTH 500 0
DWIDTH 4 0
BBX 3 1 0 3
BITMAP
E0
ENDCHAR
STARTCHAR period
ENCODING 46
SWIDTH 500 0
DWIDTH 4 0
BBX 1 1 1 0
BITMAP
80
ENDCHAR
STARTCHAR zero
ENCODING 48
SWIDTH 750 0
DWIDTH 6 0
BBX 5 7 0 0
BITMAP
70
88
88
88
88
88
70
ENDCHAR
STARTCHAR one
ENCODING 49
SWIDTH 750 0
DWIDTH 6 0
BBX 5 7 0 0
BITMAP
20
60
A0
20
20
20
F8
ENDCHAR
STARTCHAR two
ENCODING 50
SWIDTH 750 0
DWIDTH 6 0
BBX 5 7 0 0
BITMAP
70
88
08
10
20
40
F8
ENDCHAR
STARTCHAR three
ENCODING 51
SWIDTH 750 0
DWIDTH 6 0
BBX 5 7 0 0
BITMAP
70
88
08
30
08
88
70
ENDCHAR
STARTCHAR four
ENCODING 52
SWIDTH 750 0
DWIDTH 6 0
BBX 5 7 0 0
BITMAP
10
30
50
90
F8
10
10
ENDCHAR
STARTCHAR five
ENCODING 53
SWIDTH 750 0
DWIDTH 6 0
BBX 5 7 0 0
BITMAP
F8
80
F0
08
08
88
70
ENDCHAR
STARTCHAR six
ENCODING 54
SWIDTH 750 0
DWIDTH 6 0
BBX 5 7 0 0
BITMAP
70
88
80
F0
88
88
70
ENDCHAR
STARTCHAR seven
ENCODING 55
SWIDTH 750 0
DWIDTH 6 0
BBX 5 7 0 0
BITMAP
F8
08
10
10
20
20
20
ENDCHAR
STARTCHAR eight
ENCODING 56
SWIDTH 750 0
DWIDTH 6 0
BBX 5 7 0 0
BITMAP
70
88
88
70
88
88
70
ENDCHAR
STARTCHAR nine
ENCODING 57
SWIDTH 750 0
DWIDTH 6 0
BBX 5 7 0 0
BITMAP
70
88
88
78
08
88
70
ENDCHAR
STARTCHAR P
ENCODING 80
SWIDTH 750 0
DWIDTH 6 0
BBX 5 7 0 0
BITMAP
F0
88
88
F0
80
80
80
ENDCHAR
STARTCHAR R
ENCODING 82
SWIDTH 750 0
DWIDTH 6 0
BBX 5 7 0 0
BITMAP
F0
88
88
F0
A0
90
88
ENDCHAR
STARTCHAR underscore
ENCODING 95
SWIDTH 750 0
DWIDTH 6 0
BBX 6 1 0 0
BITMAP
FC
ENDCHAR
STARTCHAR a
ENCODING 97
SWIDTH 750 0
DWIDTH 6 0
BBX 5 5 0 0
BITMAP
70
08
78
88
78
ENDCHAR
STARTCHAR c
ENCODING 99
SWIDTH 750 0
DWIDTH 6 0
BBX 5 5 0 0
BITMAP
70
88
80
88
70
ENDCHAR
STARTCHAR d
ENCODING 100
SWIDTH 750 0
DWIDTH 6 0
BBX 5 7 0 0
BITMAP
08
08
68
98
88
98
68
ENDCHAR
STARTCHAR e
ENCODING 101
SWIDTH 750 0
DWIDTH 6 0
BBX 5 5 0 0
BITMAP
70
88
F8
80
70
ENDCHAR
STARTCHAR g
ENCODING 103
SWIDTH 750 0
DWIDTH 6 0
BBX 5 6 0 -1
BITMAP
70
88
88
78
08
70
ENDCHAR
STARTCHAR k
ENCODING 107
SWIDTH 625 0
DWIDTH 5 0
BBX 4 7 0 0
BITMAP
80
80
90
A0
C0
A0
90
ENDCHAR
STARTCHAR l
ENCODING 108
SWIDTH 250 0
DWIDTH 2 0
BBX 1 7 0 0
BITMAP
80
80
80
80
80
80
80
ENDCHAR
STARTCHAR o
ENCODING 111
SWIDTH 750 0
DWIDTH 6 0
BBX 5 5 0 0
BITMAP
70
88
88
88
70
ENDCHAR
STARTCHAR r
ENCODING 114
SWIDTH 750 0
DWIDTH 6 0
BBX 5 5 0 0
BITMAP
B8
C0
80
80
80
ENDCHAR
STARTCHAR u
ENCODING 117
SWIDTH 750 0
DWIDTH 6 0
BBX 5 5 0 0
BITMAP
88
88
88
98
68
ENDCHAR
STARTCHAR v
ENCODING 118
SWIDTH 750 0
DWIDTH 6 0
BBX 5 5 0 0
BITMAP
88
88
50
50
20
ENDCHAR
STARTCHAR uni3001
ENCODING 12289
SWIDTH 1000 0
DWIDTH 8 0
BBX 2 2 1 0
BITMAP
80
40
ENDCHAR
STARTCHAR uni3002
ENCODING 12290
SWIDTH 1000 0
DWIDTH 8 0
BBX 3 3 1 0
BITMAP
E0
A0
E0
ENDCHAR
STARTCHAR uni4E00
ENCODING 19968
SWIDTH -6000 0
DWIDTH -48 0
BBX 7 1 0 3
BITMAP
FE
ENDCHAR
STARTCHAR uni4E01
ENCODING 19969
SWIDTH 1000 0
DWIDTH 8 0
BBX 7 7 0 0
BITMAP
FE
10
10
10
10
10
30
ENDCHAR
STARTCHAR uni4E02
ENCODING 19970
SWIDTH 1000 0
DWIDTH 8 0
BBX 7 7 0 0
BITMAP
FE
40
40
7C
04
04
0C
ENDCHAR
STARTCHAR uni4E03
ENCODING 19971
SWIDTH 1000 0
DWIDTH 8 0
BBX 7 7 0 0
BITMAP
20
26
38
E0
20
22
1E
ENDCHAR
STARTCHAR uni4E04
ENCODING 19972
SWIDTH 1000 0
DWIDTH 8 0
BBX 7 7 0 0
BITMAP
10
10
10
10
10
10
FE
ENDCHAR
STARTCHAR uni4E05
ENCODING 19973
SWIDTH 1000 0
DWIDTH 8 0
BBX 7 7 0 0
BITMAP
FE
10
10
10
10
10
10
ENDCHAR
STARTCHAR uni4E06
ENCODING 19974
SWIDTH 1000 0
DWIDTH 8 0
BBX 7 4 0 3
BITMAP
FE
10
20
C0
ENDCHAR
STARTCHAR uni4E07
ENCODING 19975
SWIDTH 1000 0
DWIDTH 8 0
BBX 7 7 0 0
BITMAP
FE
40
7C
44
44
84
8C
ENDCHAR
STARTCHAR uni4E08
ENCODING 19976
SWIDTH 1000 0
DWIDTH 8 0
BBX 7 7 0 0
BITMAP
08
FE
08
48
28
10
EE
ENDCHAR
STARTCHAR uni4E09
ENCODING 19977
SWIDTH 1000 0
DWIDTH 8 0
BBX 7 7 0 0
BITMAP
FE
00
00
7C
00
00
FE
ENDCHAR
STARTCHAR uni4E0A
ENCODING 19978
SWIDTH 1000 0
DWIDTH 8 0
BBX 7 7 0 0
BITMAP
10
10
1E
10
10
10
FE
ENDCHAR
STARTCHAR uni4E0B
ENCODING 19979
SWIDTH 1000 0
DWIDTH 8 0
BBX 7 7 0 0
BITMAP
FE
10
10
18
14
10
10
ENDCHAR
STARTCHAR uni4E0C
ENCODING 19980
SWIDTH 1000 0
DWIDTH 8 0
BBX 7 7 0 0
BITMAP
FE
44
44
44
44
44
84
ENDCHAR
STARTCHAR uni4E0D
ENCODING 19981
SWIDTH 1000 0
DWIDTH 8 0
BBX 7 7 0 0
BITMAP
FE
08
10
34
D2
10
10
ENDCHAR
STARTCHAR uni4E0E
ENCODING 19982
SWIDTH 1000 0
DWIDTH 8 0
BBX 7 7 0 0
BITMAP
40
7E
40
7E
02
FA
06
ENDCHAR
STARTCHAR uni4E0F
ENCODING 19983
SWIDTH 1000 0
DWIDTH 8 0
BBX 7 7 0 0
BITMAP
FE
10
9E
92
FE
02
06
ENDCHAR
STARTCHAR uni4E10
ENCODING 19984
SWIDTH 1000 0
DWIDTH 8 0
BBX 7 7 0 0
BITMAP
FE
10
9C
90
FE
02
06
ENDCHAR
STARTCHAR uni4E11
ENCODING 19985
SWIDTH 1000 0
DWIDTH 8 0
BBX 7 7 0 0
BITMAP
7C
24
24
7C
24
24
FE
ENDCHAR
STARTCHAR uni4E12
ENCODING 19986
SWIDTH 1000 0
DWIDTH 8 0
BBX 7 7 0 0
BITMAP
FE
12
52
22
D6
00
FE
ENDCHAR
STARTCHAR uni4E13
ENCODING 19987
SWIDTH 1000 0
DWIDTH 8 0
BBX 7 7 0 0
BITMAP
10
7C
20
FE
04
28
10
ENDCHAR
STARTCHAR uni4E14
ENCODING 19988
SWIDTH 1000 0
DWIDTH 8 0
BBX 7 7 0 0
BITMAP
7C
44
7C
44
7C
44
FE
ENDCHAR
STARTCHAR uni4E15
ENCODING 19989
SWIDTH 1000 0
DWIDTH 8 0
BBX 7 7 0 0
BITMAP
FE
08
34
D2
10
00
FE
ENDCHAR
STARTCHAR uni4E16
ENCODING 19990
SWIDTH 1000 0
DWIDTH 8 0
BBX 7 7 0 0
BITMAP
54
54
FE
54
5C
40
7E
ENDCHAR
STARTCHAR uni4E17
ENCODING 19991
SWIDTH 1000 0
DWIDTH 8 0
BBX 7 7 0 0
BITMAP
10
54
54
FE
54
54
7C
ENDCHAR
STARTCHAR uni4E18
ENCODING 19992
SWIDTH 1000 0
DWIDTH 8 0
BBX 7 7 0 0
BITMAP
7C
40
7C
48
48
48
FE
ENDCHAR
STARTCHAR uni4E19
ENCODING 19993
SWIDTH 1000 0
DWIDTH 8 0
BBX 7 7 0 0
BITMAP
FE
10
FE
92
AA
82
86
ENDCHAR
STARTCHAR uni4E1A
ENCODING 19994
SWIDTH 1000 0
DWIDTH 8 0
BBX 7 7 0 0
BITMAP
28
28
AA
6C
28
28
FE
ENDCHAR
STARTCHAR uni4E1B
ENCODING 19995
SWIDTH 1000 0
DWIDTH 8 0
BBX 7 7 0 0
BITMAP
28
28
54
54
AA
00
FE
ENDCHAR
STARTCHAR uni4E1C
ENCODING 19996
SWIDTH 1000 0
DWIDTH 8 0
BBX 7 7 0 0
BITMAP
20
FE
50
FE
10
54
B2
ENDCHAR
STARTCHAR uni4E1D
ENCODING 19997
SWIDTH 1000 0
DWIDTH 8 0
BBX 7 7 0 0
BITMAP
44
88
66
88
EE
00
FE
ENDCHAR
STARTCHAR uni4E1E
ENCODING 19998
SWIDTH 1000 0
DWIDTH 8 0
BBX 7 7 0 0
BITMAP
FE
08
D2
54
B2
00
FE
ENDCHAR
STARTCHAR uni4E1F
ENCODING 19999
SWIDTH 1000 0
DWIDTH 8 0
BBX 7 7 0 0
BITMAP
FE
10
7C
10
FE
44
FE
ENDCHAR
STARTCHAR uni4E20
ENCODING 20000
SWIDTH 1000 0
DWIDTH 8 0
BBX 7 7 0 0
BITMAP
2A
EC
28
6A
A6
00
FE
ENDCHAR
STARTCHAR uni4E21
ENCODING 20001
SWIDTH 1000 0
DWIDTH 8 0
BBX 7 7 0 0
BITMAP
FE
10
FE
92
D6
BA
86
ENDCHAR
STARTCHAR uni4E22
ENCODING 20002
SWIDTH 1000 0
DWIDTH 8 0
BBX 7 7 0 0
BITMAP
FE
10
7C
10
FE
44
FE
ENDCHAR
STARTCHAR uni4E23
ENCODING 20003
SWIDTH 1000 0
DWIDTH 8 0
BBX 7 7 0 0
BITMAP
FE
28
6E
AA
EE
28
48
ENDCHAR
STARTCHAR uni4E24
ENCODING 20004
SWIDTH 1000 0
DWIDTH 8 0
BBX 7 7 0 0
BITMAP
FE
28
FE
AA
D6
82
86
ENDCHAR
STARTCHAR uni4E25
ENCODING 20005
SWIDTH 1000 0
DWIDTH 8 0
BBX 7 7 0 0
BITMAP
FE
AA
6C
FE
40
40
80
ENDCHAR
STARTCHAR uni4E26
ENCODING 20006
SWIDTH 1000 0
DWIDTH 8 0
BBX 7 7 0 0
BITMAP
82
44
FE
28
AA
6C
FE
ENDCHAR
STARTCHAR uni4E27
ENCODING 20007
SWIDTH 1000 0
DWIDTH 8 0
BBX 7 7 0 0
BITMAP
10
7C
54
FE
54
48
66
ENDCHAR
STARTCHAR uni4E28
ENCODING 20008
SWIDTH 1000 0
DWIDTH 8 0
BBX 1 7 3 0
BITMAP
80
80
80
80
80
80
80
ENDCHAR
STARTCHAR uni4E29
ENCODING 20009
SWIDTH 1000 0
DWIDTH 8 0
BBX 5 7 1 0
BITMAP
88
88
88
B8
C8
08
08
ENDCHAR
STARTCHAR uni4E2A
ENCODING 20010
SWIDTH 1000 0
DWIDTH 8 0
BBX 7 7 0 0
BITMAP
10
28
44
92
10
10
10
ENDCHAR
STARTCHAR uni4E2B
ENCODING 20011
SWIDTH 1000 0
DWIDTH 8 0
BBX 7 7 0 0
BITMAP
82
44
28
10
10
10
10
ENDCHAR
STARTCHAR uni4E2C
ENCODING 20012
SWIDTH 1000 0
DWIDTH 8 0
BBX 3 7 2 0
BITMAP
20
A0
60
20
60
A0
20
ENDCHAR
STARTCHAR uni4E2D
ENCODING 20013
SWIDTH 1000 0
DWIDTH 8 0
BBX 7 7 0 0
BITMAP
10
FE
92
92
FE
10
10
ENDCHAR
STARTCHAR uni4E2E
ENCODING 20014
SWIDTH 1000 0
DWIDTH 8 0
BBX 7 7 0 0
BITMAP
FC
24
FC
24
FC
24
22
ENDCHAR
STARTCHAR uni4E2F
ENCODING 20015
SWIDTH 1000 0
DWIDTH 8 0
BBX 7 7 0 0
BITMAP
10
1E
F0
1E
F0
1E
F0
ENDCHAR
STARTCHAR uni4E30
ENCODING 20016
SWIDTH 1000 0
DWIDTH 8 0
BBX 7 7 0 0
BITMAP
10
FE
10
7C
10
FE
10
ENDCHAR
STARTCHAR uni4E31
ENCODING 20017
SWIDTH 1000 0
DWIDTH 8 0
BBX 7 7 0 0
BITMAP
28
AA
AA
AA
EE
28
48
ENDCHAR
STARTCHAR uni4E32
ENCODING 20018
SWIDTH 1000 0
DWIDTH 8 0
BBX 7 7 0 0
BITMAP
10
7C
54
FE
92
FE
10
ENDCHAR
STARTCHAR uni4E33
ENCODING 20019
SWIDTH 1000 0
DWIDTH 8 0
BBX 7 7 0 0
BITMAP
28
FE
AA
FE
AA
FE
48
ENDCHAR
STARTCHAR uni4E34
ENCODING 20020
SWIDTH 1000 0
DWIDTH 8 0
BBX 7 7 0 0
BITMAP
28
BE
A8
A4
BE
AA
3E
ENDCHAR
STARTCHAR uni4E35
ENCODING 20021
SWIDTH 1000 0
DWIDTH 8 0
BBX 7 7 0 0
BITMAP
AA
6C
FE
92
54
FE
10
ENDCHAR
STARTCHAR uni4E36
ENCODING 20022
SWIDTH 1000 0
DWIDTH 8 0
BBX 3 3 2 2
BITMAP
80
40
20
ENDCHAR
STARTCHAR uni4E37
ENCODING 20023
SWIDTH 1000 0
DWIDTH 8 0
BBX 5 2 1 3
BITMAP
88
50
ENDCHAR
STARTCHAR uni4E38
ENCODING 20024
SWIDTH 1000 0
DWIDTH 8 0
BBX 7 7 0 0
BITMAP
20
F8
28
68
28
5A
86
ENDCHAR
STARTCHAR uni4E39
ENCODING 20025
SWIDTH 1000 0
DWIDTH 8 0
BBX 7 7 0 0
BITMAP
7C
44
54
44
FE
44
8C
ENDCHAR
STARTCHAR uni4E3A
ENCODING 20026
SWIDTH 1000 0
DWIDTH 8 0
BBX 7 7 0 0
BITMAP
90
50
FE
22
32
4A
86
ENDCHAR
STARTCHAR uni4E3B
ENCODING 20027
SWIDTH 1000 0
DWIDTH 8 0
BBX 7 7 0 0
BITMAP
20
10
FE
10
7C
10
FE
ENDCHAR
STARTCHAR uni4E3C
ENCODING 20028
SWIDTH 1000 0
DWIDTH 8 0
BBX 7 7 0 0
BITMAP
44
FE
44
54
44
FE
84
ENDCHAR
STARTCHAR uni4E3D
ENCODING 20029
SWIDTH 1000 0
DWIDTH 8 0
BBX 7 7 0 0
BITMAP
FE
00
EE
AA
EE
AA
AA
ENDCHAR
STARTCHAR uni4E3E
ENCODING 20030
SWIDTH 1000 0
DWIDTH 8 0
BBX 7 7 0 0
BITMAP
92
FE
54
BA
10
FE
10
ENDCHAR
STARTCHAR uni4E3F
ENCODING 20031
SWIDTH 1000 0
DWIDTH 8 0
BBX 3 7 2 0
BITMAP
20
20
20
20
40
40
80
ENDCHAR
STARTCHAR uni4E40
ENCODING 20032
SWIDTH 1000 0
DWIDTH 8 0
BBX 7 7 0 0
BITMAP
18
68
88
08
04
04
02
ENDCHAR
STARTCHAR uni4E41
ENCODING 20033
SWIDTH 1000 0
DWIDTH 8 0
BBX 7 7 0 0
BITMAP
F8
08
08
08
04
04
02
ENDCHAR
STARTCHAR uni4E42
ENCODING 20034
SWIDTH 1000 0
DWIDTH 8 0
BBX 7 7 0 0
BITMAP
44
44
28
28
10
28
C6
ENDCHAR
STARTCHAR uni4E43
ENCODING 20035
SWIDTH 1000 0
DWIDTH 8 0
BBX 7 7 0 0
BITMAP
FC
44
48
5E
42
42
86
ENDCHAR
STARTCHAR uni4E44
ENCODING 20036
SWIDTH 1000 0
DWIDTH 8 0
BBX 7 6 0 0
BITMAP
22
14
08
14
A2
40
ENDCHAR
STARTCHAR uni4E45
ENCODING 20037
SWIDTH 1000 0
DWIDTH 8 0
BBX 7 7 0 0
BITMAP
20
7E
84
08
10
28
C6
ENDCHAR
STARTCHAR uni4E46
ENCODING 20038
SWIDTH 1000 0
DWIDTH 8 0
BBX 7 7 0 0
BITMAP
90
90
B0
D0
28
44
82
ENDCHAR
STARTCHAR uni4E47
ENCODING 20039
SWIDTH 1000 0
DWIDTH 8 0
BBX 7 7 0 0
BITMAP
1C
70
10
1E
F0
12
0E
ENDCHAR
STARTCHAR uni4E48
ENCODING 20040
SWIDTH 1000 0
DWIDTH 8 0
BBX 7 7 0 0
BITMAP
24
48
90
20
44
82
FE
ENDCHAR
STARTCHAR uni4E49
ENCODING 20041
SWIDTH 1000 0
DWIDTH 8 0
BBX 7 7 0 0
BITMAP
54
44
28
28
10
28
C6
ENDCHAR
STARTCHAR uni4E4A
ENCODING 20042
SWIDTH 1000 0
DWIDTH 8 0
BBX 7 4 0 3
BITMAP
0E
F0
44
28
ENDCHAR
STARTCHAR uni4E4B
ENCODING 20043
SWIDTH 1000 0
DWIDTH 8 0
BBX 7 7 0 0
BITMAP
20
10
FE
0C
30
40
BE
ENDCHAR
STARTCHAR uni4E4C
ENCODING 20044
SWIDTH 1000 0
DWIDTH 8 0
BBX 7 7 0 0
BITMAP
20
7C
44
7E
02
FA
06
ENDCHAR
STARTCHAR uni4E4D
ENCODING 20045
SWIDTH 1000 0
DWIDTH 8 0
BBX 7 7 0 0
BITMAP
20
7E
A0
3C
20
3C
20
ENDCHAR
STARTCHAR uni4E4E
ENCODING 20046
SWIDTH 1000 0
DWIDTH 8 0
BBX 7 7 0 0
BITMAP
7C
92
54
FE
10
10
30
ENDCHAR
STARTCHAR uni4E4F
ENCODING 20047
SWIDTH 1000 0
DWIDTH 8 0
BBX 7 7 0 0
BITMAP
FE
10
FE
0C
30
40
BE
ENDCHAR
STARTCHAR uni4E50
ENCODING 20048
SWIDTH 1000 0
DWIDTH 8 0
BBX 7 7 0 0
BITMAP
FE
80
90
FE
10
54
B2
ENDCHAR
STARTCHAR uni4E51
ENCODING 20049
SWIDTH 1000 0
DWIDTH 8 0
BBX 7 7 0 0
BITMAP
FE
10
3A
54
B4
52
92
ENDCHAR
STARTCHAR uni4E52
ENCODING 20050
SWIDTH 1000 0
DWIDTH 8 0
BBX 7 7 0 0
BITMAP
7C
40
7C
48
FE
40
80
ENDCHAR
STARTCHAR uni4E53
ENCODING 20051
SWIDTH 1000 0
DWIDTH 8 0
BBX 7 7 0 0
BITMAP
7C
40
7C
48
FE
04
02
ENDCHAR
STARTCHAR uni4E54
ENCODING 20052
SWIDTH 1000 0
DWIDTH 8 0
BBX 7 7 0 0
BITMAP
7C
10
FE
44
AA
28
48
ENDCHAR
STARTCHAR uni4E55
ENCODING 20053
SWIDTH 1000 0
DWIDTH 8 0
BBX 7 7 0 0
BITMAP
7E
48
7E
48
7E
6A
AA
ENDCHAR
STARTCHAR uni4E56
ENCODING 20054
SWIDTH 1000 0
DWIDTH 8 0
BBX 7 7 0 0
BITMAP
7C
10
FE
10
D6
54
D2
ENDCHAR
STARTCHAR uni4E57
ENCODING 20055
SWIDTH 1000 0
DWIDTH 8 0
BBX 7 7 0 0
BITMAP
7C
54
FE
54
D6
38
D6
ENDCHAR
STARTCHAR uni4E58
ENCODING 20056
SWIDTH 1000 0
DWIDTH 8 0
BBX 7 7 0 0
BITMAP
7C
10
FE
54
D6
38
D6
ENDCHAR
STARTCHAR uni4E59
ENCODING 20057
SWIDTH 1000 0
DWIDTH 8 0
BBX 7 7 0 0
BITMAP
FE
06
18
60
80
82
7E
ENDCHAR
STARTCHAR uni4E5A
ENCODING 20058
SWIDTH 1000 0
DWIDTH 8 0
BBX 5 7 1 0
BITMAP
80
80
80
80
80
88
78
ENDCHAR
STARTCHAR uni4E5B
ENCODING 20059
SWIDTH 1000 0
DWIDTH 8 0
BBX 7 3 0 3
BITMAP
FE
04
08
ENDCHAR
STARTCHAR uni4E5C
ENCODING 20060
SWIDTH 1000 0
DWIDTH 8 0
BBX 7 7 0 0
BITMAP
40
5C
E4
44
4C
42
3E
ENDCHAR
STARTCHAR uni4E5D
ENCODING 20061
SWIDTH 1000 0
DWIDTH 8 0
BBX 7 7 0 0
BITMAP
20
F8
28
28
48
4A
86
ENDCHAR
STARTCHAR uni4E5E
ENCODING 20062
SWIDTH 1000 0
DWIDTH 8 0
BBX 7 7 0 0
BITMAP
7E
80
FE
0C
70
82
7E
ENDCHAR
STARTCHAR uni4E5F
ENCODING 20063
SWIDTH 1000 0
DWIDTH 8 0
BBX 7 7 0 0
BITMAP
50
5C
F4
54
4C
42
3E
ENDCHAR
STARTCHAR uni4E60
ENCODING 20064
SWIDTH 1000 0
DWIDTH 8 0
BBX 7 7 0 0
BITMAP
FE
02
62
12
1E
E2
06
ENDCHAR
STARTCHAR uni4E61
ENCODING 20065
SWIDTH 1000 0
DWIDTH 8 0
BBX 7 7 0 0
BITMAP
20
44
F8
22
FC
18
E0
ENDCHAR
STARTCHAR uni4E62
ENCODING 20066
SWIDTH 1000 0
DWIDTH 8 0
BBX 7 7 0 0
BITMAP
48
48
A8
A8
A8
AA
E6
ENDCHAR
STARTCHAR uni4E63
ENCODING 20067
SWIDTH 1000 0
DWIDTH 8 0
BBX 7 7 0 0
BITMAP
28
48
88
E8
48
AA
E6
ENDCHAR
STARTCHAR uni4E64
ENCODING 20068
SWIDTH 1000 0
DWIDTH 8 0
BBX 7 7 0 0
BITMAP
FE
14
FA
0C
70
82
7E
ENDCHAR
STARTCHAR uni4E65
ENCODING 20069
SWIDTH 1000 0
DWIDTH 8 0
BBX 7 7 0 0
BITMAP
FE
44
BA
0C
70
82
7E
ENDCHAR
STARTCHAR uni4E66
ENCODING 20070
SWIDTH 1000 0
DWIDTH 8 0
BBX 7 7 0 0
BITMAP
12
7C
14
FE
12
16
10
ENDCHAR
STARTCHAR uni4E67
ENCODING 20071
SWIDTH 1000 0
DWIDTH 8 0
BBX 7 7 0 0
BITMAP
48
28
FE
0C
70
82
7E
ENDCHAR
STARTCHAR uni4E68
ENCODING 20072
SWIDTH 1000 0
DWIDTH 8 0
BBX 7 7 0 0
BITMAP
48
A8
E8
08
E8
AA
E6
ENDCHAR
STARTCHAR uni4E69
ENCODING 20073
SWIDTH 1000 0
DWIDTH 8 0
BBX 7 7 0 0
BITMAP
48
68
48
E8
A8
AA
E6
ENDCHAR
STARTCHAR uni4E6A
ENCODING 20074
SWIDTH 1000 0
DWIDTH 8 0
BBX 7 7 0 0
BITMAP
EE
2A
4E
4A
8E
80
7E
ENDCHAR
STARTCHAR uni4E6B
ENCODING 20075
SWIDTH 1000 0
DWIDTH 8 0
BBX 7 7 0 0
BITMAP
4E
EA
AA
AE
70
82
7E
ENDCHAR
STARTCHAR uni4E6C
ENCODING 20076
SWIDTH 1000 0
DWIDTH 8 0
BBX 7 7 0 0
BITMAP
FE
88
FE
0C
70
82
7E
ENDCHAR
STARTCHAR uni4E6D
ENCODING 20077
SWIDTH 1000 0
DWIDTH 8 0
BBX 7 7 0 0
BITMAP
FE
54
B6
1C
70
82
7E
ENDCHAR
STARTCHAR uni4E70
ENCODING 20080
SWIDTH 1000 0
DWIDTH 8 0
BBX 7 7 0 0
BITMAP
FE
02
48
28
FE
24
C2
ENDCHAR
STARTCHAR uni4E71
ENCODING 20081
SWIDTH 1000 0
DWIDTH 8 0
BBX 7 7 0 0
BITMAP
E8
48
E8
48
E8
AA
E6
ENDCHAR
STARTCHAR uni4E73
ENCODING 20083
SWIDTH 1000 0
DWIDTH 8 0
BBX 7 7 0 0
BITMAP
E8
08
E8
28
48
EA
46
ENDCHAR
STARTCHAR uni4E7E
ENCODING 20094
SWIDTH 1000 0
DWIDTH 8 0
BBX 7 7 0 0
BITMAP
48
EE
50
BE
4C
F0
4E
ENDCHAR
STARTCHAR uni4E85
ENCODING 20101
SWIDTH 1000 0
DWIDTH 8 0
BBX 2 7 2 0
BITMAP
40
40
40
40
40
40
C0
ENDCHAR
STARTCHAR uni4E86
ENCODING 20102
SWIDTH 1000 0
DWIDTH 8 0
BBX 7 7 0 0
BITMAP
FE
04
08
10
10
10
30
ENDCHAR
STARTCHAR uni4E87
ENCODING 20103
SWIDTH 1000 0
DWIDTH 8 0
BBX 7 7 0 0
BITMAP
20
7E
82
10
10
10
30
ENDCHAR
STARTCHAR uni4E88
ENCODING 20104
SWIDTH 1000 0
DWIDTH 8 0
BBX 7 7 0 0
BITMAP
7C
28
10
FE
12
10
30
ENDCHAR
STARTCHAR uni4E89
ENCODING 20105
SWIDTH 1000 0
DWIDTH 8 0
BBX 7 7 0 0
BITMAP
7C
88
7C
96
7C
10
30
ENDCHAR
STARTCHAR uni4E8B
ENCODING 20107
SWIDTH 1000 0
DWIDTH 8 0
BBX 7 7 0 0
BITMAP
7C
28
7C
96
7C
10
30
ENDCHAR
STARTCHAR uni4E8C
ENCODING 20108
SWIDTH 1000 0
DWIDTH 8 0
BBX 7 5 0 1
BITMAP
7C
00
00
00
FE
ENDCHAR
STARTCHAR uni4E8D
ENCODING 20109
SWIDTH 1000 0
DWIDTH 8 0
BBX 7 7 0 0
BITMAP
7C
00
00
FE
10
10
30
ENDCHAR
STARTCHAR uni4E8E
ENCODING 20110
SWIDTH 1000 0
DWIDTH 8 0
BBX 7 7 0 0
BITMAP
7C
10
10
FE
10
10
30
ENDCHAR
STARTCHAR uni4E8F
ENCODING 20111
SWIDTH 1000 0
DWIDTH 8 0
BBX 7 7 0 0
BITMAP
7C
00
FE
20
7C
04
0C
ENDCHAR
STARTCHAR uni4E91
ENCODING 20113
SWIDTH 1000 0
DWIDTH 8 0
BBX 7 7 0 0
BITMAP
7C
00
00
FE
20
44
FE
ENDCHAR
STARTCHAR uni4E92
ENCODING 20114
SWIDTH 1000 0
DWIDTH 8 0
BBX 7 7 0 0
BITMAP
FE
20
3C
44
78
08
FE
ENDCHAR
STARTCHAR uni4E94
ENCODING 20116
SWIDTH 1000 0
DWIDTH 8 0
BBX 7 7 0 0
BITMAP
FE
10
10
7C
24
24
FE
ENDCHAR
STARTCHAR uni4E95
ENCODING 20117
SWIDTH 1000 0
DWIDTH 8 0
BBX 7 7 0 0
BITMAP
44
FE
44
44
FE
44
84
ENDCHAR
STARTCHAR uni4E98
ENCODING 20120
SWIDTH 1000 0
DWIDTH 8 0
BBX 7 7 0 0
BITMAP
FE
7C
44
7C
44
7C
FE
ENDCHAR
STARTCHAR uni4E9A
ENCODING 20122
SWIDTH 1000 0
DWIDTH 8 0
BBX 7 7 0 0
BITMAP
FE
28
28
AA
6C
28
FE
ENDCHAR
STARTCHAR uni4E9B
ENCODING 20123
SWIDTH 1000 0
DWIDTH 8 0
BBX 7 7 0 0
BITMAP
2A
3C
A8
F6
7C
00
FE
ENDCHAR
STARTCHAR uni4E9C
ENCODING 20124
SWIDTH 1000 0
DWIDTH 8 0
BBX 7 7 0 0
BITMAP
FE
28
FE
AA
FE
28
FE
ENDCHAR
STARTCHAR uni4E9E
ENCODING 20126
SWIDTH 1000 0
DWIDTH 8 0
BBX 7 7 0 0
BITMAP
FE
28
EE
82
EE
28
FE
ENDCHAR
STARTCHAR uni4E9F
ENCODING 20127
SWIDTH 1000 0
DWIDTH 8 0
BBX 7 7 0 0
BITMAP
FE
04
FE
B4
FA
10
FE
ENDCHAR
STARTCHAR uni4EA0
ENCODING 20128
SWIDTH 1000 0
DWIDTH 8 0
BBX 7 3 0 3
BITMAP
20
10
FE
ENDCHAR
STARTCHAR uni4EA1
ENCODING 20129
SWIDTH 1000 0
DWIDTH 8 0
BBX 7 7 0 0
BITMAP
20
10
FE
40
40
40
7E
ENDCHAR
STARTCHAR uni4EA2
ENCODING 20130
SWIDTH 1000 0
DWIDTH 8 0
BBX 7 7 0 0
BITMAP
10
FE
00
38
28
2A
46
ENDCHAR
STARTCHAR uni4EA3
ENCODING 20131
SWIDTH 1000 0
DWIDTH 8 0
BBX 7 7 0 0
BITMAP
20
10
FE
44
44
44
84
ENDCHAR
STARTCHAR uni4EA4
ENCODING 20132
SWIDTH 1000 0
DWIDTH 8 0
BBX 7 7 0 0
BITMAP
10
FE
44
AA
10
28
C6
ENDCHAR
STARTCHAR uni4EA5
ENCODING 20133
SWIDTH 1000 0
DWIDTH 8 0
BBX 7 7 0 0
BITMAP
10
FE
44
3A
E4
18
E6
ENDCHAR
STARTCHAR uni4EA6
ENCODING 20134
SWIDTH 1000 0
DWIDTH 8 0
BBX 7 7 0 0
BITMAP
10
FE
28
6C
AA
28
58
ENDCHAR
STARTCHAR uni4EA7
ENCODING 20135
SWIDTH 1000 0
DWIDTH 8 0
BBX 7 7 0 0
BITMAP
10
7C
28
7E
40
40
80
ENDCHAR
STARTCHAR uni4EA8
ENCODING 20136
SWIDTH 1000 0
DWIDTH 8 0
BBX 7 7 0 0
BITMAP
10
FE
28
7C
08
10
30
ENDCHAR
STARTCHAR uni4EA9
ENCODING 20137
SWIDTH 1000 0
DWIDTH 8 0
BBX 7 7 0 0
BITMAP
10
FE
00
FE
B6
DA
FE
ENDCHAR
STARTCHAR uni4EAB
ENCODING 20139
SWIDTH 1000 0
DWIDTH 8 0
BBX 7 7 0 0
BITMAP
10
FE
28
7C
08
FE
10
ENDCHAR
STARTCHAR uni4EAC
ENCODING 20140
SWIDTH 1000 0
DWIDTH 8 0
BBX 7 7 0 0
BITMAP
10
FE
44
7C
10
54
B2
ENDCHAR
STARTCHAR uni4EAD
ENCODING 20141
SWIDTH 1000 0
DWIDTH 8 0
BBX 7 7 0 0
BITMAP
10
FE
44
FE
82
7C
10
ENDCHAR
STARTCHAR uni4EAE
ENCODING 20142
SWIDTH 1000 0
DWIDTH 8 0
BBX 7 7 0 0
BITMAP
10
FE
44
FE
AA
28
C6
ENDCHAR
STARTCHAR uni4EB2
ENCODING 20146
SWIDTH 1000 0
DWIDTH 8 0
BBX 7 7 0 0
BITMAP
10
7C
28
FE
10
FE
54
ENDCHAR
STARTCHAR uni4EBA
ENCODING 20154
SWIDTH 1000 0
DWIDTH 8 0
BBX 7 7 0 0
BITMAP
10
10
10
28
28
44
82
ENDCHAR
STARTCHAR uni4EBB
ENCODING 20155
SWIDTH 1000 0
DWIDTH 8 0
BBX 5 7 1 0
BITMAP
08
30
E0
20
20
20
20
ENDCHAR
STARTCHAR uni4EBF
ENCODING 20159
SWIDTH 1000 0
DWIDTH 8 0
BBX 7 7 0 0
BITMAP
3E
42
C4
48
50
52
4E
ENDCHAR
STARTCHAR uni4EC0
ENCODING 20160
SWIDTH 1000 0
DWIDTH 8 0
BBX 7 7 0 0
BITMAP
28
48
C8
7E
48
48
48
ENDCHAR
STARTCHAR uni4EC1
ENCODING 20161
SWIDTH 1000 0
DWIDTH 8 0
BBX 7 7 0 0
BITMAP
20
40
DC
40
40
7E
40
ENDCHAR
STARTCHAR uni4EC3
ENCODING 20163
SWIDTH 1000 0
DWIDTH 8 0
BBX 7 7 0 0
BITMAP
3E
44
C4
44
44
44
4C
ENDCHAR
STARTCHAR uni4EC6
ENCODING 20166
SWIDTH 1000 0
DWIDTH 8 0
BBX 7 7 0 0
BITMAP
28
48
C8
4C
4A
48
48
ENDCHAR
STARTCHAR uni4EC7
ENCODING 20167
SWIDTH 1000 0
DWIDTH 8 0
BBX 7 7 0 0
BITMAP
30
50
FC
54
54
54
62
ENDCHAR
STARTCHAR uni4ECA
ENCODING 20170
SWIDTH 1000 0
DWIDTH 8 0
BBX 7 7 0 0
BITMAP
10
28
C6
10
7C
08
10
ENDCHAR
STARTCHAR uni4ECB
ENCODING 20171
SWIDTH 1000 0
DWIDTH 8 0
BBX 7 7 0 0
BITMAP
10
28
C6
28
28
28
48
ENDCHAR
STARTCHAR uni4ECD
ENCODING 20173
SWIDTH 1000 0
DWIDTH 8 0
BBX 7 7 0 0
BITMAP
3E
54
D4
56
52
52
66
ENDCHAR
STARTCHAR uni4ECE
ENCODING 20174
SWIDTH 1000 0
DWIDTH 8 0
BBX 7 7 0 0
BITMAP
28
28
28
28
54
54
A2
ENDCHAR
STARTCHAR uni4ED1
ENCODING 20177
SWIDTH 1000 0
DWIDTH 8 0
BBX 7 7 0 0
BITMAP
10
28
C6
48
70
44
3C
ENDCHAR
STARTCHAR uni4ED3
ENCODING 20179
SWIDTH 1000 0
DWIDTH 8 0
BBX 7 7 0 0
BITMAP
10
28
FE
44
4C
40
3C
ENDCHAR
STARTCHAR uni4ED4
ENCODING 20180
SWIDTH 1000 0
DWIDTH 8 0
BBX 7 7 0 0
BITMAP
3E
44
C8
7E
48
48
58
ENDCHAR
STARTCHAR uni4ED5
ENCODING 20181
SWIDTH 1000 0
DWIDTH 8 0
BBX 7 7 0 0
BITMAP
28
48
C8
7E
48
48
5C
ENDCHAR
STARTCHAR uni4ED6
ENCODING 20182
SWIDTH 1000 0
DWIDTH 8 0
BBX 7 7 0 0
BITMAP
34
54
FE
52
56
50
4E
ENDCHAR
STARTCHAR uni4ED7
ENCODING 20183
SWIDTH 1000 0
DWIDTH 8 0
BBX 7 7 0 0
BITMAP
24
44
FE
44
54
48
56
ENDCHAR
STARTCHAR uni4ED8
ENCODING 20184
SWIDTH 1000 0
DWIDTH 8 0
BBX 7 7 0 0
BITMAP
24
44
FE
44
54
44
4C
ENDCHAR
STARTCHAR uni4ED9
ENCODING 20185
SWIDTH 1000 0
DWIDTH 8 0
BBX 7 7 0 0
BITMAP
48
88
AA
AA
AA
AA
BE
ENDCHAR
STARTCHAR uni4EDB
ENCODING 20187
SWIDTH 1000 0
DWIDTH 8 0
BBX 7 7 0 0
BITMAP
26
58
C8
7E
48
4A
46
ENDCHAR
STARTCHAR uni4EDE
ENCODING 20190
SWIDTH 1000 0
DWIDTH 8 0
BBX 7 7 0 0
BITMAP
3E
4A
DA
5A
6A
4A
56
ENDCHAR
STARTCHAR uni4EDF
ENCODING 20191
SWIDTH 1000 0
DWIDTH 8 0
BBX 7 7 0 0
BITMAP
26
58
C8
7E
48
48
48
ENDCHAR
STARTCHAR uni4EE0
ENCODING 20192
SWIDTH 1000 0
DWIDTH 8 0
BBX 7 7 0 0
BITMAP
3E
48
C8
7E
48
48
48
ENDCHAR
STARTCHAR uni4EE3
ENCODING 20195
SWIDTH 1000 0
DWIDTH 8 0
BBX 7 7 0 0
BITMAP
2A
48
FE
48
48
4A
46
ENDCHAR
STARTCHAR uni4EE4
ENCODING 20196
SWIDTH 1000 0
DWIDTH 8 0
BBX 7 7 0 0
BITMAP
10
28
D6
7C
04
28
10
ENDCHAR
STARTCHAR uni4EE5
ENCODING 20197
SWIDTH 1000 0
DWIDTH 8 0
BBX 7 7 0 0
BITMAP
88
C8
A8
88
B4
D4
A2
ENDCHAR
STARTCHAR uni4EEA
ENCODING 20202
SWIDTH 1000 0
DWIDTH 8 0
BBX 7 7 0 0
BITMAP
22
6A
E2
54
48
54
62
ENDCHAR
STARTCHAR uni4EEC
ENCODING 20204
SWIDTH 1000 0
DWIDTH 8 0
BBX 7 7 0 0
BITMAP
36
42
D2
52
52
52
56
ENDCHAR
STARTCHAR uni4EEE
ENCODING 20206
SWIDTH 1000 0
DWIDTH 8 0
BBX 7 7 0 0
BITMAP
3E
50
D0
5E
5A
54
6A
ENDCHAR
STARTCHAR uni4EF0
ENCODING 20208
SWIDTH 1000 0
DWIDTH 8 0
BBX 7 7 0 0
BITMAP
7E
AA
AA
AA
BE
A8
88
ENDCHAR
STARTCHAR uni4EF2
ENCODING 20210
SWIDTH 1000 0
DWIDTH 8 0
BBX 7 7 0 0
BITMAP
28
48
FE
6A
7E
48
48
ENDCHAR
STARTCHAR uni4EF6
ENCODING 20214
SWIDTH 1000 0
DWIDTH 8 0
BBX 7 7 0 0
BITMAP
28
7E
C8
7E
48
48
48
ENDCHAR
STARTCHAR uni4EF7
ENCODING 20215
SWIDTH 1000 0
DWIDTH 8 0
BBX 7 7 0 0
BITMAP
28
54
E2
54
54
54
64
ENDCHAR
STARTCHAR uni4EFB
ENCODING 20219
SWIDTH 1000 0
DWIDTH 8 0
BBX 7 7 0 0
BITMAP
3C
48
C8
7E
48
48
7E
ENDCHAR
STARTCHAR uni4EFC
ENCODING 20220
SWIDTH 1000 0
DWIDTH 8 0
BBX 7 7 0 0
BITMAP
3E
48
C8
5C
48
48
7E
ENDCHAR
STARTCHAR uni4EFD
ENCODING 20221
SWIDTH 1000 0
DWIDTH 8 0
BBX 7 7 0 0
BITMAP
54
E2
40
7E
4A
4A
76
ENDCHAR
STARTCHAR uni4EFF
ENCODING 20223
SWIDTH 1000 0
DWIDTH 8 0
BBX 7 7 0 0
BITMAP
28
7E
D0
5E
52
52
66
ENDCHAR
STARTCHAR uni4F01
ENCODING 20225
SWIDTH 1000 0
DWIDTH 8 0
BBX 7 7 0 0
BITMAP
10
28
C6
10
5C
50
FE
ENDCHAR
STARTCHAR uni4F0A
ENCODING 20234
SWIDTH 1000 0
DWIDTH 8 0
BBX 7 7 0 0
BITMAP
3C
54
FE
54
7C
50
60
ENDCHAR
STARTCHAR uni4F0D
ENCODING 20237
SWIDTH 1000 0
DWIDTH 8 0
BBX 7 7 0 0
BITMAP
3E
48
C8
5E
4A
4A
7E
ENDCHAR
STARTCHAR uni4F0E
ENCODING 20238
SWIDTH 1000 0
DWIDTH 8 0
BBX 7 7 0 0
BITMAP
28
7E
C8
7E
54
48
76
ENDCHAR
STARTCHAR uni4F0F
ENCODING 20239
SWIDTH 1000 0
DWIDTH 8 0
BBX 7 7 0 0
BITMAP
2A
48
FE
48
54
54
62
ENDCHAR
STARTCHAR uni4F10
ENCODING 20240
SWIDTH 1000 0
DWIDTH 8 0
BBX 7 7 0 0
BITMAP
2A
48
FE
4A
4C
5A
66
ENDCHAR
STARTCHAR uni4F17
ENCODING 20247
SWIDTH 1000 0
DWIDTH 8 0
BBX 7 7 0 0
BITMAP
10
28
C6
28
28
54
A2
ENDCHAR
STARTCHAR uni4F18
ENCODING 20248
SWIDTH 1000 0
DWIDTH 8 0
BBX 7 7 0 0
BITMAP
2A
48
FE
48
54
54
66
ENDCHAR
STARTCHAR uni4F19
ENCODING 20249
SWIDTH 1000 0
DWIDTH 8 0
BBX 7 7 0 0
BITMAP
28
6A
DC
48
54
54
62
ENDCHAR
STARTCHAR uni4F1A
ENCODING 20250
SWIDTH 1000 0
DWIDTH 8 0
BBX 7 7 0 0
BITMAP
38
44
BA
00
FE
44
FE
ENDCHAR
STARTCHAR uni4F1D
ENCODING 20253
SWIDTH 1000 0
DWIDTH 8 0
BBX 7 7 0 0
BITMAP
3C
40
FE
48
50
54
7E
ENDCHAR
STARTCHAR uni4F1E
ENCODING 20254
SWIDTH 1000 0
DWIDTH 8 0
BBX 7 7 0 0
BITMAP
10
28
D6
54
FE
10
10
ENDCHAR
STARTCHAR uni4F1F
ENCODING 20255
SWIDTH 1000 0
DWIDTH 8 0
BBX 7 7 0 0
BITMAP
28
7E
C8
7E
48
7E
4A
ENDCHAR
STARTCHAR uni4F20
ENCODING 20256
SWIDTH 1000 0
DWIDTH 8 0
BBX 7 7 0 0
BITMAP
28
7E
C8
7E
50
5E
44
ENDCHAR
STARTCHAR uni4F24
ENCODING 20260
SWIDTH 1000 0
DWIDTH 8 0
BBX 7 7 0 0
BITMAP
28
5E
E8
5E
4A
4A
56
ENDCHAR
STARTCHAR uni4F25
ENCODING 20261
SWIDTH 1000 0
DWIDTH 8 0
BBX 7 7 0 0
BITMAP
32
54
D8
7E
58
54
5A
ENDCHAR
STARTCHAR uni4F26
ENCODING 20262
SWIDTH 1000 0
DWIDTH 8 0
BBX 7 7 0 0
BITMAP
28
54
E2
54
58
52
4E
ENDCHAR
STARTCHAR uni4F53
ENCODING 20307
SWIDTH 1000 0
DWIDTH 8 0
BBX 7 7 0 0
BITMAP
28
7E
C8
5C
6A
5C
48
ENDCHAR
STARTCHAR uni541E
ENCODING 21534
SWIDTH 1000 0
DWIDTH 8 0
BBX 7 7 0 0
BITMAP
7C
10
FE
44
BA
44
7C
ENDCHAR
STARTCHAR uni6211
ENCODING 25105
SWIDTH 1000 0
DWIDTH 8 0
BBX 7 7 0 0
BITMAP
EA
48
FE
48
EA
44
CA
ENDCHAR
STARTCHAR uni73BB
ENCODING 29627
SWIDTH 1000 0
DWIDTH 8 0
BBX 7 7 0 0
BITMAP
E4
5E
54
FE
52
54
EA
ENDCHAR
STARTCHAR uni7483
ENCODING 29827
SWIDTH 1000 0
DWIDTH 8 0
BBX 7 7 0 0
BITMAP
C8
BE
94
FE
AA
BE
E2
ENDCHAR
STARTCHAR uni800C
ENCODING 32780
SWIDTH 1000 0
DWIDTH 8 0
BBX 7 7 0 0
BITMAP
FE
20
FE
AA
AA
AA
AE
ENDCHAR
STARTCHAR uni80FD
ENCODING 33021
SWIDTH 1000 0
DWIDTH 8 0
BBX 7 7 0 0
BITMAP
AE
E8
06
E8
AE
E8
A6
ENDCHAR
STARTCHAR uni8EAB
ENCODING 36523
SWIDTH 1000 0
DWIDTH 8 0
BBX 7 7 0 0
BITMAP
20
7C
54
6C
FE
24
CC
ENDCHAR
STARTCHAR uniFF0C
ENCODING 65292
SWIDTH 1000 0
DWIDTH 8 0
BBX 2 3 1 0
BITMAP
C0
40
80
ENDCHAR
ENDFONT
